<svg width="120" height="27" viewBox="0 0 120 27" fill="none" xmlns="http://www.w3.org/2000/svg">
<path d="M0.4 25V1.166H5.296V1.2H13.49L17.74 4.09L14.816 9.87L19.78 13.882L18.556 22.076L12.98 25H0.4ZM12.266 13.236H5.84L6.078 19.866L12.164 20.104L14.204 18.71L14.442 16.092L12.266 13.236ZM5.534 7.966L6.248 8H10.906L11.688 5.246L5.568 4.396L5.534 7.966ZM40.962 24.966H29.504L25.22 20.206L25.356 5.008L29.81 1.2H40.622L44.022 3.954L45.62 20.002L40.962 24.966ZM30.592 17.826L32.36 19.526H36.882L39.806 16.738L38.82 7.218L36.916 5.96H32.122L30.388 7.558L30.592 17.826ZM50.7027 1.2H56.0067L66.4447 15.242V1.2H71.1707V25H65.1867L55.8367 11.842L55.4967 25H50.7707L50.7027 1.2ZM77.9625 24.966L78.4725 1.2H83.6405L83.4025 8.884L92.4125 0.179999L95.5405 3.784L86.4285 11.774L97.6825 22.382L93.1945 26.02L83.1645 15.718V24.966H77.9625ZM102.101 25V1.2H118.149L116.449 6.606L107.473 6.062V10.72L116.959 10.21V15.412L107.473 16.228L107.643 19.798L119.067 19.186L119.101 25H102.101Z" fill="white"/>
</svg>
